<svg id="visual" viewBox="0 0 900 600" width="900" height="600" xmlns="http://www.w3.org/2000/svg" xmlns:xlink="http://www.w3.org/1999/xlink" version="1.1"><rect x="0" y="0" width="900" height="600" fill="#001220"></rect><defs><linearGradient id="grad1_0" x1="33.3%" y1="0%" x2="100%" y2="100%"><stop offset="20%" stop-color="#001220" stop-opacity="1"></stop><stop offset="80%" stop-color="#001220" stop-opacity="1"></stop></linearGradient></defs><defs><linearGradient id="grad2_0" x1="0%" y1="0%" x2="66.7%" y2="100%"><stop offset="20%" stop-color="#001220" stop-opacity="1"></stop><stop offset="80%" stop-color="#001220" stop-opacity="1"></stop></linearGradient></defs><g transform="translate(900, 0)"><path d="M0 324.5C-37.6 310.8 -75.3 297.2 -117.9 284.6C-160.5 271.9 -208 260.4 -229.5 229.5C-250.9 198.5 -246.3 148.2 -257.8 106.8C-269.3 65.3 -296.9 32.6 -324.5 0L0 0Z" fill="#FBAE3C"></path></g><g transform="translate(0, 600)"><path d="M0 -324.5C32.7 -299.8 65.4 -275 109.4 -264.2C153.5 -253.4 208.9 -256.5 229.5 -229.5C250 -202.4 235.7 -145.1 245.8 -101.8C255.8 -58.5 290.1 -29.3 324.5 0L0 0Z" fill="#FBAE3C"></path></g></svg>